<svg width="23" height="24" viewBox="0 0 23 24" fill="none" xmlns="http://www.w3.org/2000/svg">
<path d="M11.5051 5.66747C8.2399 5.66747 5.60619 8.30117 5.60619 11.5664C5.60619 14.8315 8.2399 17.4652 11.5051 17.4652C14.7703 17.4652 17.404 14.8315 17.404 11.5664C17.404 8.30117 14.7703 5.66747 11.5051 5.66747ZM11.5051 15.4014C9.39503 15.4014 7.67003 13.6815 7.67003 11.5664C7.67003 9.45117 9.3899 7.73131 11.5051 7.73131C13.6203 7.73131 15.3401 9.45117 15.3401 11.5664C15.3401 13.6815 13.6151 15.4014 11.5051 15.4014ZM19.0212 5.42617C19.0212 6.19113 18.4051 6.80207 17.6453 6.80207C16.8803 6.80207 16.2694 6.18599 16.2694 5.42617C16.2694 4.66635 16.8854 4.05028 17.6453 4.05028C18.4051 4.05028 19.0212 4.66635 19.0212 5.42617ZM22.9281 6.8226C22.8408 4.97952 22.4198 3.34693 21.0696 2.00184C19.7245 0.656752 18.0919 0.23577 16.2488 0.143359C14.3493 0.0355469 8.65575 0.0355469 6.7562 0.143359C4.91825 0.230636 3.28566 0.651618 1.93544 1.99671C0.585212 3.3418 0.169364 4.97439 0.0769531 6.81747C-0.0308594 8.71702 -0.0308594 14.4105 0.0769531 16.3101C0.16423 18.1532 0.585212 19.7858 1.93544 21.1309C3.28566 22.476 4.91311 22.8969 6.7562 22.9893C8.65575 23.0972 14.3493 23.0972 16.2488 22.9893C18.0919 22.9021 19.7245 22.4811 21.0696 21.1309C22.4147 19.7858 22.8357 18.1532 22.9281 16.3101C23.0359 14.4105 23.0359 8.72215 22.9281 6.8226ZM20.4741 18.3483C20.0736 19.3545 19.2984 20.1297 18.287 20.5353C16.7725 21.136 13.1787 20.9974 11.5051 20.9974C9.83142 20.9974 6.23253 21.1309 4.72316 20.5353C3.71691 20.1349 2.94169 19.3597 2.53611 18.3483C1.93544 16.8338 2.07405 13.24 2.07405 11.5664C2.07405 9.89269 1.94057 6.29381 2.53611 4.78443C2.93655 3.77818 3.71177 3.00296 4.72316 2.59738C6.23767 1.99671 9.83142 2.13532 11.5051 2.13532C13.1787 2.13532 16.7776 2.00184 18.287 2.59738C19.2933 2.99782 20.0685 3.77305 20.4741 4.78443C21.0747 6.29894 20.9361 9.89269 20.9361 11.5664C20.9361 13.24 21.0747 16.8389 20.4741 18.3483Z" fill="#051716"/>
</svg>
