<svg xmlns="http://www.w3.org/2000/svg" xmlns:xlink="http://www.w3.org/1999/xlink" xml:space="preserve" id="Warstwa_1" x="0" y="0" version="1.1" viewBox="0 0 360 173">
  <defs>
    <path id="reuse-0" d="m308.7 21.2-17.9-2.7c-.1 0-.1 0-.2-.1-.1 0-.1-.1-.1-.1l-.1-.1v-.1c0-.1.1-.2.2-.2.1-.1.2-.1.4-.1l17.8 2.7c.1 0 .2.1.3.1.1.1.1.2.1.3 0 .1-.1.2-.2.3h-.3z" class="st1"/>
    <path id="reuse-1" d="M227.5 53.4h-.1l-20.2-4.5c-.1 0-.1 0-.2-.1-.1 0-.1-.1-.1-.1l-.1-.1v-.2s0-.1.1-.1l.1-.1h.4l20.3 4.5c.1 0 .2.1.3.2.1.1.1.2 0 .3 0 .1-.1.2-.2.2h-.3z" class="st1"/>
    <path id="reuse-2" d="M343.1 68.7h-.1l-26.3-5.4c-.1 0-.2-.1-.3-.2-.1-.1-.1-.2-.1-.3 0-.1.1-.2.2-.2.1-.1.2-.1.4 0l26.3 5.4c.1 0 .2.1.3.1.1.1.1.2.1.3 0 .1-.1.2-.2.3h-.3z" class="st1"/>
    <path id="reuse-3" d="M227.5 143h-.2l-32.2-11.5c-.1 0-.1 0-.2-.1l-.1-.1v-.2c.1-.1.1-.2.3-.2h.4l32.2 11.5c.1 0 .2.1.2.2v.3c0 .1-.1.1-.2.1h-.2z" class="st1"/>
    <path id="b" d="M295.3 143c-.1 0-.2 0-.2-.1-.1 0-.1-.1-.2-.2 0 0 0-.1-.1-.1v-.1l.1-.1.1-.1 28.9-11.5h.4c.1 0 .1 0 .2.1l.1.1c.1.1.1.2 0 .3 0 .1-.1.2-.2.2L295.5 143h-.2z" class="st1"/>
  </defs>
  <style>
    .st1{fill:#fff}
  </style>
  <g opacity=".3">
    <path d="M326.5 6.7c-.1 0-.2 0-.3-.1l-.2-.2v-.1s0-.1.1-.1l.1-.1c.1 0 .1 0 .2-.1l11.7-2.1h.2c.1 0 .1 0 .2.1.1 0 .1.1.1.1l.1.1v.1s0 .1-.1.1l-.1.1s-.1 0-.2.1l-11.7 2.1h-.1z" class="st1"/>
    <path d="M338.2 4.6h-.2c-.1 0-.1-.1-.2-.1L333.3.6l-.1-.1V.3l.1-.1c.1-.1.2-.1.3-.1s.2 0 .3.1l4.5 3.9.1.1v.2l-.1.1c.1.1-.1.1-.2.1zm-20 8.8L301.3 11c-.1 0-.2-.1-.3-.2-.1-.1-.1-.2-.1-.3 0 0 0-.1.1-.1l.1-.1c.1 0 .1 0 .2-.1h.2l16.8 2.4c.1 0 .1 0 .2.1.1 0 .1.1.1.1l.1.1v.1c0 .1-.1.2-.2.2-.1.2-.2.2-.3.2z" class="st1"/>
    <path d="M318.2 13.4c-.1 0-.2 0-.3-.1l-.2-.2V13s0-.1.1-.1l.1-.1c.1 0 .1 0 .2-.1l12.7-2.3h.2c.1 0 .1 0 .2.1.1 0 .1.1.1.1l.1.1v.1s0 .1-.1.1l-.1.1c-.1 0-.1 0-.2.1l-12.7 2.4c0-.1-.1-.1-.1-.1z" class="st1"/>
    <path d="M330.9 11.1h-.2c-.1 0-.1-.1-.2-.1L326 6.6v-.3c0-.1.1-.2.2-.3.1-.1.2-.1.3-.1.1 0 .2.1.3.1l4.5 4.4c.1.1.1.2.1.3 0 .1-.1.2-.2.3-.1.1-.2.1-.3.1zm-54.7 10.1-17.1-2.7c-.1 0-.1 0-.2-.1-.1 0-.1-.1-.1-.1l-.1-.1v-.1s0-.1.1-.1l.1-.1c.1 0 .1 0 .2-.1h.2l17 2.7c.1 0 .1 0 .2.1.1 0 .1.1.1.1l.1.1v.1c0 .1-.1.2-.2.2-.1.1-.2.1-.3.1z" class="st1"/>
    <path d="M276.2 21.2c-.1 0-.2 0-.3-.1l-.2-.2c0-.1 0-.2.1-.3.1-.1.2-.1.3-.2l14.7-2.7c.1 0 .3 0 .4.1.1.1.2.1.2.2s0 .2-.1.3c-.1.1-.2.1-.3.2l-14.7 2.7h-.1z" class="st1"/>
    <use xlink:href="#reuse-0" class="st1"/>
    <path d="M308.7 21.2c-.1 0-.2 0-.3-.1l-.2-.2c0-.1 0-.2.1-.3.1-.1.2-.1.3-.2l13.9-2.7h.4c.1 0 .1.1.1.1l.1.1v.1s0 .1-.1.1l-.1.1s-.1.1-.2.1L308.8 21h-.1z" class="st1"/>
    <path d="M322.6 18.5h-.2c-.1 0-.1-.1-.2-.1l-4.4-5.1-.1-.1v-.1s0-.1.1-.1l.1-.1c.1-.1.2-.1.3-.1.1 0 .2.1.3.2l4.4 5.1.1.1v.1s0 .1-.1.1l-.1.1h-.2z" class="st1"/>
    <path d="M318.2 13.4 301.3 11c-.1 0-.2-.1-.3-.2-.1-.1-.1-.2-.1-.3 0 0 0-.1.1-.1l.1-.1c.1 0 .1 0 .2-.1h.2l16.8 2.4c.1 0 .1 0 .2.1.1 0 .1.1.1.1l.1.1v.1c0 .1-.1.2-.2.2-.1.2-.2.2-.3.2z" class="st1"/>
    <path d="M322.6 18.5h-.2c-.1 0-.1-.1-.2-.1l-4.4-5.1c-.1-.1-.1-.2-.1-.3 0-.1.1-.2.2-.2.1-.1.2-.1.4-.1.1 0 .2.1.3.2L323 18c.1.1.1.2.1.3 0 .1-.1.2-.2.2h-.3z" class="st1"/>
    <path d="m341.2 21.2-18.7-2.7c-.1 0-.1 0-.2-.1-.1 0-.1-.1-.1-.1l-.1-.1v-.1c0-.1.1-.2.2-.2s.2-.1.4-.1l18.6 2.7c.1 0 .2.1.3.2.1.1.1.2.1.3 0 .1-.1.2-.2.2h-.3z" class="st1"/>
    <path d="M341.2 21.2c-.1 0-.2 0-.3-.1l-.2-.2v-.1s0-.1.1-.1l.1-.1c.1 0 .1-.1.2-.1l13.1-2.7h.4c.1 0 .1.1.1.1l.1.1v.1s0 .1-.1.1-.1.1-.1.1-.1.1-.2.1l-13.1 2.7h-.1v.1z" class="st1"/>
    <path d="M354.3 18.5h-.2c-.1 0-.1-.1-.2-.1l-5.8-5-.1-.1v-.2l.1-.1c.1-.1.2-.1.3-.1.1 0 .2 0 .3.1l5.8 5c.1.1.1.1.1.2v.2c0 .1-.1.1-.2.2.1-.1 0-.1-.1-.1z" class="st1"/>
    <path d="M348.4 13.4 330.8 11c-.1 0-.1 0-.2-.1-.1 0-.1-.1-.1-.1l-.1-.1v-.2c0-.1.1-.2.2-.2.1-.1.2-.1.3-.1l17.5 2.4h.2c.1 0 .1.1.1.1l.1.1v.1c0 .1-.1.2-.2.2.1.3 0 .3-.2.3z" class="st1"/>
    <path d="M318.2 13.4c-.1 0-.2 0-.3-.1l-.2-.2V13s0-.1.1-.1l.1-.1c.1 0 .1 0 .2-.1l12.7-2.3h.2c.1 0 .1 0 .2.1.1 0 .1.1.1.1l.1.1v.1s0 .1-.1.1l-.1.1c-.1 0-.1 0-.2.1l-12.7 2.4c0-.1-.1-.1-.1-.1zm-55.6 16.8c-.1 0-.3 0-.4-.1-.1-.1-.2-.2-.2-.3 0-.1 0-.2.1-.3.1-.1.2-.1.3-.1l16.2-3.2h.2c.1 0 .1 0 .2.1.1 0 .1.1.1.1l.1.1c0 .1 0 .2-.1.3-.1.1-.2.1-.3.2l-16.2 3.2z" class="st1"/>
    <path d="M278.8 27.1c-.1 0-.2 0-.3-.1l-.2-.2-2.5-5.8v-.2l.1-.1s.1-.1.2-.1h.4c.1 0 .2.1.2.2l2.5 5.8v.3c-.1.1-.2.2-.3.2h-.1z" class="st1"/>
    <path d="m276.2 21.2-17.1-2.7c-.1 0-.1 0-.2-.1-.1 0-.1-.1-.1-.1l-.1-.1v-.1s0-.1.1-.1l.1-.1c.1 0 .1 0 .2-.1h.2l17 2.7c.1 0 .2.1.3.2.1.1.1.2.1.3 0 .1-.1.2-.2.2h-.3z" class="st1"/>
    <path d="M278.8 27.1c-.1 0-.2 0-.3-.1-.1 0-.1-.1-.2-.2l-2.5-5.8v-.3c.1-.1.1-.2.3-.2h.4c.1 0 .1.1.1.1l.1.1 2.5 5.8v.3c-.1.1-.2.2-.3.2l-.1.1z" class="st1"/>
    <path d="m297.7 30.2-19-3.2c-.1 0-.1 0-.2-.1-.1 0-.1-.1-.1-.1l-.1-.1v-.1c0-.1.1-.2.2-.2.1-.1.2-.1.4-.1l18.9 3.2c.1 0 .1 0 .2.1.1 0 .1.1.1.1l.1.1v.1c0 .1-.1.2-.2.2-.1.1-.2.1-.3.1z" class="st1"/>
    <path d="M297.7 30.2c-.1 0-.3 0-.4-.1-.1-.1-.2-.2-.2-.3 0-.1 0-.2.1-.3.1-.1.2-.1.3-.1l15.3-3.2h.2c.1 0 .1 0 .2.1.1 0 .1.1.1.1l.1.1v.2c0 .1 0 .1-.1.1l-.1.1c-.1 0-.1.1-.2.1l-15.3 3.2z" class="st1"/>
    <path d="M313 27.1c-.1 0-.2 0-.2-.1-.1 0-.1-.1-.2-.1l-4.2-5.8c0-.1-.1-.2 0-.3 0-.1.1-.2.2-.2s.2-.1.3 0c.1 0 .2.1.3.1l4.2 5.9c.1.1.1.2 0 .3 0 .1-.1.2-.2.2h-.2z" class="st1"/>
    <use xlink:href="#reuse-0" class="st1"/>
    <path d="M276.2 21.2c-.1 0-.2 0-.3-.1l-.2-.2c0-.1 0-.2.1-.3.1-.1.2-.1.3-.2l14.7-2.7c.1 0 .3 0 .4.1.1.1.2.1.2.2s0 .2-.1.3c-.1.1-.2.1-.3.2l-14.8 2.7c.1 0 0 0 0 0zm36.7 5.9c-.1 0-.2 0-.2-.1-.1 0-.1-.1-.2-.1l-4.2-5.8-.1-.1v-.1s0-.1.1-.1l.1-.1h.4c.1 0 .1 0 .2.1l.1.1 4.2 5.9c.1.1.1.2 0 .3 0 .1-.1.2-.2.2 0-.2-.1-.2-.2-.2z" class="st1"/>
    <path d="m332.8 30.2-20-3.2c-.1 0-.1 0-.2-.1-.1 0-.1-.1-.1-.1l-.1-.1v-.1c0-.1.1-.2.2-.2.1-.1.2-.1.4-.1l19.9 3.2c.1 0 .1 0 .2.1.1 0 .1.1.1.1l.1.1v.1c0 .1-.1.2-.2.2-.1.1-.2.1-.3.1z" class="st1"/>
    <path d="M332.8 30.2c-.1 0-.3 0-.4-.1-.1-.1-.2-.2-.2-.3 0-.1 0-.2.1-.3.1-.1.2-.1.3-.1l14.3-3.2h.4c.1 0 .1.1.1.1l.1.1v.2c0 .1 0 .1-.1.1l-.1.1c-.1 0-.1.1-.2.1l-14.4 3.2c.2.1.1.1.1.1z" class="st1"/>
    <path d="M347.1 27.1h-.2c-.1 0-.1-.1-.2-.1l-5.9-5.8c-.1-.1-.1-.2-.1-.3 0-.1.1-.2.2-.3.1-.1.2-.1.3-.1.1 0 .2.1.3.1l5.9 5.8c.1.1.1.1.1.2v.2c0 .1-.1.1-.2.2 0 0-.1.1-.2.1z" class="st1"/>
    <path d="m341.2 21.2-18.7-2.7c-.1 0-.1 0-.2-.1-.1 0-.1-.1-.1-.1l-.1-.1v-.1c0-.1.1-.2.2-.2s.2-.1.4-.1l18.6 2.7c.1 0 .2.1.3.1.1.1.1.2.1.3 0 .1-.1.2-.2.3h-.3z" class="st1"/>
    <path d="M308.7 21.2c-.1 0-.2 0-.3-.1l-.2-.2v-.1s0-.1.1-.1l.1-.1c.1 0 .1 0 .2-.1l13.9-2.7h.4c.1.1.2.1.2.2v.1s0 .1-.1.1l-.1.1c-.1 0-.1.1-.2.1l-13.9 2.7-.1.1zm-62.1 19.6c-.1 0-.3 0-.4-.1-.1-.1-.2-.2-.2-.3 0-.1 0-.2.1-.3.1-.1.2-.1.3-.1l18-3.7h.4c.1 0 .1.1.1.1l.1.1c0 .1 0 .2-.1.3s-.2.1-.3.2l-18 3.7v.1z" class="st1"/>
    <path d="M264.6 37.1c-.1 0-.2 0-.3-.1l-.2-.2-2-6.9v-.1s0-.1.1-.1l.1-.1c.1 0 .1 0 .2-.1h.4c.1.1.2.1.2.2l2 6.9c0 .1 0 .2-.1.3-.1.1-.2.1-.3.2h-.1z" class="st1"/>
    <path d="M264.6 37.1c-.1 0-.2 0-.3-.1l-.2-.2-2-6.9c0-.1 0-.2.1-.3.1-.1.2-.1.3-.2h.4c.1.1.2.1.2.2l2 6.9c0 .1 0 .2-.1.3-.1.1-.2.1-.3.2l-.1.1z" class="st1"/>
    <path d="M284.8 40.8h-.1l-20.2-3.7c-.1 0-.2-.1-.3-.2-.1-.1-.1-.2-.1-.3 0 0 0-.1.1-.1l.1-.1c.1 0 .1 0 .2-.1h.2l20.2 3.7c.1 0 .1 0 .2.1.1 0 .1.1.1.1l.1.1v.1c0 .1-.1.1-.2.2-.2.2-.2.2-.3.2z" class="st1"/>
    <path d="M284.8 40.8c-.1 0-.3 0-.4-.1-.1-.1-.2-.2-.2-.3 0-.1 0-.2.1-.3.1-.1.2-.1.3-.1l16.9-3.7h.4c.1 0 .1.1.1.1l.1.1v.2c0 .1 0 .1-.1.1l-.1.1c-.1 0-.1.1-.2.1l-16.9 3.7v.1z" class="st1"/>
    <path d="M301.7 37.1c-.1 0-.2 0-.3-.1-.1 0-.1-.1-.2-.2l-4-6.9c-.1-.1-.1-.2 0-.3 0-.1.1-.2.2-.2h.4c.1 0 .1 0 .2.1l.1.1 4 6.9v.2l-.1.1s-.1.1-.2.1c0 .2-.1.2-.1.2z" class="st1"/>
    <path d="m297.7 30.2-19-3.2c-.1 0-.1 0-.2-.1l-.1-.1-.1-.1v-.1s0-.1.1-.1l.1-.1c.1 0 .1 0 .2-.1s.1 0 .2 0l18.9 3.2c.1 0 .1 0 .2.1.1 0 .1.1.1.1l.1.1v.1c0 .1-.1.2-.2.2-.1.1-.2.1-.3.1z" class="st1"/>
    <path d="M262.6 30.2c-.1 0-.3 0-.4-.1-.1-.1-.2-.2-.2-.3 0-.1 0-.2.1-.3.1-.1.2-.1.3-.1l16.2-3.2h.2c.1 0 .1 0 .2.1.1 0 .1.1.1.1l.1.1c0 .1 0 .2-.1.3-.1.1-.2.1-.3.2l-16.2 3.2zm39.1 6.9c-.1 0-.2 0-.3-.1-.1 0-.1-.1-.2-.2l-4-6.9v-.2l.1-.1.1-.1h.4c.1 0 .1 0 .2.1l.1.1 4 6.9v.2l-.1.1-.1.1c-.1.1-.2.1-.2.1z" class="st1"/>
    <path d="M322.9 40.8h-.1l-21.2-3.7c-.1 0-.2-.1-.3-.2-.1-.1-.1-.2-.1-.3s.1-.2.2-.2.2-.1.4-.1L323 40c.1 0 .2.1.3.1.1.1.1.2.1.3 0 .1-.1.2-.2.3 0 .1-.2.1-.3.1z" class="st1"/>
    <path d="M322.9 40.8c-.1 0-.3 0-.4-.1-.1-.1-.2-.2-.2-.3 0-.1 0-.2.1-.3.1-.1.2-.1.3-.1l15.8-3.7h.4c.1 0 .1.1.1.1l.1.1v.3c-.1.1-.2.2-.3.2L323 40.8h-.1z" class="st1"/>
    <path d="M338.7 37.1h-.2c-.1 0-.1-.1-.2-.1l-6-6.9-.1-.1v-.2c0-.1 0-.1.1-.1l.1-.1c.1 0 .1 0 .2-.1h.2c.1 0 .1 0 .2.1l.1.1 6 6.9.1.1v.1s0 .1-.1.1l-.1.1c-.1.1-.2.1-.3.1z" class="st1"/>
    <path d="M332.8 30.2 312.9 27c-.1 0-.1 0-.2-.1-.1 0-.1-.1-.1-.1l-.1-.1v-.1c0-.1.1-.2.2-.2.1-.1.2-.1.4-.1l19.9 3.2c.1 0 .1 0 .2.1.1 0 .1.1.1.1l.1.1v.1c0 .1-.1.2-.2.2-.2.1-.3.1-.4.1z" class="st1"/>
    <path d="M297.7 30.2c-.1 0-.3 0-.4-.1-.1-.1-.2-.2-.2-.3 0-.1 0-.2.1-.3.1-.1.2-.1.3-.1l15.3-3.2h.2c.1 0 .1 0 .2.1.1 0 .1.1.1.1l.1.1v.2c0 .1 0 .1-.1.1l-.1.1c-.1 0-.1.1-.2.1l-15.3 3.2zm41 6.9h-.2c-.1 0-.1-.1-.2-.1l-6-6.9-.1-.1v-.2c0-.1 0-.1.1-.1l.1-.1c.1 0 .1 0 .2-.1h.2c.1 0 .1 0 .2.1l.1.1 6 6.9.1.1v.1s0 .1-.1.1l-.1.1c-.1.1-.2.1-.3.1z" class="st1"/>
    <path d="m359.5 39.8-20.7-3.4h-.2c-.1 0-.1 0-.2.1-.1 0-.1.1-.1.1l-.1.1v.2s0 .1.1.1l.1.1c.1 0 .1 0 .2.1l20.9 3.5v-.9zm0-11.6-12.3-1.9c-.1 0-.3 0-.4.1-.1.1-.2.1-.2.2s0 .2.1.3c.1.1.2.1.3.2l12.5 1.9v-.8z" class="st1"/>
    <path d="M332.8 30.2c-.1 0-.3 0-.4-.1-.1-.1-.2-.2-.2-.3 0-.1 0-.2.1-.3.1-.1.2-.1.3-.1l14.3-3.2h.4c.1 0 .1.1.1.1l.1.1v.2c0 .1 0 .1-.1.1l-.1.1c-.1 0-.1.1-.2.1l-14.4 3.2c.2.1.1.1.1.1zM143.9 53.4c-.1 0-.2 0-.3-.1l-.2-.2V53s0-.1.1-.1l.1-.1c.1 0 .1 0 .2-.1l22.9-4.5h.2c.1 0 .1 0 .2.1.1 0 .1.1.1.1l.1.1v.2c0 .1 0 .1-.1.1l-.1.1s-.1.1-.2.1L144 53.4h-.1z" class="st1"/>
    <path d="M185.7 53.4h-.1l-18.9-4.5c-.1 0-.1 0-.2-.1l-.1-.1s0-.1-.1-.1v-.1c0-.1.1-.2.2-.2s.2-.1.4 0l18.9 4.5c.1 0 .2.1.3.2.1.1.1.2 0 .3 0 .1-.1.1-.2.2 0-.1-.1-.1-.2-.1z" class="st1"/>
    <path d="M185.7 53.4c-.1 0-.2 0-.3-.1l-.2-.2v-.3c.1-.1.2-.1.3-.2l21.6-4.5h.2c.1 0 .1 0 .2.1.1 0 .1.1.1.1l.1.1v.2c0 .1 0 .1-.1.1l-.1.1s-.1.1-.2.1l-21.6 4.5z" class="st1"/>
    <path d="M207.2 48.9h-.2c-.1 0-.1-.1-.1-.1l-.1-.1v-.1l1.2-8.1c0-.1.1-.2.2-.3.1-.1.2-.1.4-.1s.2.1.3.1c.1.1.1.2.1.3l-1.2 8.1c0 .1-.1.2-.2.2-.1.1-.2.1-.4.1z" class="st1"/>
    <path d="M207.2 48.9c-.2 0-.3-.1-.4-.1s-.1-.2-.1-.3l1.2-8.1s0-.1.1-.1l.1-.1s.1-.1.2-.1h.2c.1 0 .2.1.3.1s.1.2.1.3l-1.2 8.1c0 .1-.1.2-.2.2 0 .1-.1.1-.3.1z" class="st1"/>
    <use xlink:href="#reuse-1" class="st1"/>
    <path d="M227.5 53.4c-.1 0-.2 0-.3-.1l-.2-.2v-.3c0-.1.2-.1.3-.2l20.3-4.5h.4c.1 0 .2.1.2.2v.1s0 .1-.1.1l-.1.1s-.1.1-.2.1l-20.3 4.5c.1.2 0 .2 0 .2z" class="st1"/>
    <path d="M247.8 48.9c-.1 0-.2 0-.3-.1l-.2-.2-1.2-8.1c0-.1 0-.2.1-.3.1-.1.2-.1.3-.1.1 0 .3 0 .4.1.1.1.2.2.2.3l1.2 8.1c0 .1 0 .2-.1.3h-.4z" class="st1"/>
    <path d="M247.7 48.9c-.1 0-.2 0-.3-.1l-.2-.2-1.2-8.1c0-.1 0-.2.1-.3.1-.1.2-.1.3-.1.1 0 .3 0 .4.1.1.1.2.2.2.3l1.2 8.1c0 .1 0 .2-.1.3h-.4z" class="st1"/>
    <path d="M269.3 53.4h-.1l-21.6-4.5c-.1 0-.2-.1-.3-.2-.1-.1-.1-.2-.1-.3s.1-.2.2-.2c.1-.1.2-.1.4 0l21.6 4.5c.1 0 .2.1.3.1s.1.2.1.3c0 .1-.1.2-.2.3h-.3z" class="st1"/>
    <path d="M269.3 53.4c-.1 0-.2 0-.3-.1-.1 0-.1-.1-.2-.2v-.3c.1-.1.2-.2.3-.2l18.9-4.5h.4c.1 0 .1.1.1.1l.1.1v.2c0 .1 0 .1-.1.1l-.1.1c-.1 0-.1.1-.2.1l-18.9 4.5c.1.1.1.1 0 .1z" class="st1"/>
    <path d="M288.3 48.9c-.1 0-.2 0-.3-.1-.1 0-.1-.1-.2-.2l-3.5-8.1v-.4l.1-.1s.1-.1.2-.1h.4c.1 0 .1.1.1.1l.1.1 3.5 8.1v.3c-.1.1-.2.2-.3.2 0 .2-.1.2-.1.2z" class="st1"/>
    <path d="M284.8 40.8h-.1l-20.2-3.7c-.1 0-.2-.1-.3-.2-.1-.1-.1-.2-.1-.3 0 0 0-.1.1-.1l.1-.1c.1 0 .1 0 .2-.1h.2l20.2 3.7c.1 0 .2.1.3.1.1.1.1.2.1.3 0 .1-.1.2-.2.3-.1.1-.2.1-.3.1z" class="st1"/>
    <path d="M246.6 40.8c-.1 0-.3 0-.4-.1-.1-.1-.2-.2-.2-.3 0-.1 0-.2.1-.3.1-.1.2-.1.3-.1l18-3.7h.4c.1 0 .1.1.1.1l.1.1v.1s0 .1-.1.1-.1.1-.1.1-.1.1-.2.1l-18 3.7v.2zm41.7 8.1c-.1 0-.2 0-.3-.1-.1 0-.1-.1-.2-.2l-3.5-8.1v-.3c.1-.1.2-.2.3-.2h.4c.1 0 .2.1.2.2l3.5 8.1v.3c-.1.1-.2.2-.3.2 0 .1-.1.1-.1.1z" class="st1"/>
    <path d="M311.1 53.4h-.1l-22.8-4.5c-.1 0-.2-.1-.3-.2-.1-.1-.1-.2-.1-.3 0 0 0-.1.1-.1l.1-.1c.1 0 .1 0 .2-.1h.2l22.9 4.5c.1 0 .2.1.3.2.1.1.1.2.1.3 0 .1-.1.2-.2.2-.2.1-.3.1-.4.1z" class="st1"/>
    <path d="M311.1 53.4c-.1 0-.2 0-.3-.1-.1 0-.1-.1-.2-.2V53s0-.1.1-.1l.1-.1s.1-.1.2-.1l17.7-4.5h.3c.1 0 .2.1.2.2v.2l-.1.1s-.1.1-.2.1l-17.7 4.5-.1.1z" class="st1"/>
    <path d="M328.8 48.9h-.2c-.1 0-.1-.1-.2-.1l-5.9-8.2-.1-.1v-.2c0-.1 0-.1.1-.1l.1-.1h.4c.1 0 .1 0 .2.1l.1.1 5.9 8.1c.1.1.1.2 0 .3 0 .1-.1.2-.2.2h-.2z" class="st1"/>
    <path d="M322.9 40.8h-.1l-21.2-3.7c-.1 0-.2-.1-.3-.2-.1-.1-.1-.2-.1-.3s.1-.2.2-.2.2-.1.4-.1L323 40h.2c.1 0 .1.1.1.1l.1.1v.1s0 .1-.1.1l-.1.1s-.1.1-.2.1c0 .2 0 .2-.1.2z" class="st1"/>
    <path d="M284.8 40.8c-.1 0-.2 0-.3-.1-.1 0-.1-.1-.2-.2v-.1s0-.1.1-.1l.1-.1s.1-.1.2-.1l16.9-3.7h.2c.1 0 .1 0 .2.1.1 0 .1.1.1.1l.1.1v.2c0 .1 0 .1-.1.1l-.1.1c-.1 0-.1.1-.2.1l-16.9 3.7-.1-.1zm44 8.1h-.2c-.1 0-.1-.1-.2-.1l-5.9-8.2c-.1-.1-.1-.2 0-.3 0-.1.1-.2.2-.2s.2-.1.4 0c.1 0 .2.1.3.2l5.9 8.1c.1.1.1.2 0 .3 0 .1-.1.2-.2.2h-.3z" class="st1"/>
    <path d="M352.9 53.4h-.1l-24.1-4.5c-.1 0-.1 0-.2-.1-.1 0-.1-.1-.1-.1l-.1-.1v-.2s0-.1.1-.1l.1-.1c.1 0 .1 0 .2-.1h.2l24.1 4.5c.1 0 .2.1.3.2.1.1.1.2.1.3 0 .1-.1.2-.2.2-.1.1-.2.1-.3.1z" class="st1"/>
    <path d="m359.5 50.8-6.7 1.8c-.1 0-.2.1-.3.2-.1.1-.1.2 0 .3 0 .1.1.1.2.2.1 0 .2.1.3.1h.2l6.4-1.8-.1-.8zm0-11-20.7-3.4h-.2c-.1 0-.1 0-.2.1-.1 0-.1.1-.1.1l-.1.1v.2s0 .1.1.1l.1.1c.1 0 .1 0 .2.1l20.9 3.5v-.9z" class="st1"/>
    <path d="M322.9 40.8c-.1 0-.2 0-.3-.1-.1 0-.1-.1-.2-.2v-.1s0-.1.1-.1l.1-.1s.1-.1.2-.1l15.8-3.7h.4c.1 0 .1.1.1.1l.1.1v.3c-.1.1-.2.2-.3.2L323 40.8h-.1zM138.2 63.2h-.2c-.1 0-.2-.1-.2-.2v-.3l5.7-9.8c.1-.1.2-.1.3-.2h.3c.1 0 .2.1.2.2s.1.2 0 .3l-5.7 9.8c0 .1-.1.1-.2.1-.1.1-.1.1-.2.1z" class="st1"/>
    <path d="M138.2 63.2h-.2c-.1 0-.1 0-.1-.1l-.1-.1v-.2l5.7-9.8.1-.1s.1-.1.2-.1h.4c.1 0 .1 0 .2.1l.1.1v.2l-5.7 9.8c0 .1-.1.1-.2.1-.3.1-.3.1-.4.1z" class="st1"/>
    <path d="M158.1 68.7h-.2l-20-5.5c-.1 0-.2-.1-.3-.2-.1-.1-.1-.2 0-.3 0-.1.1-.2.2-.2s.2-.1.4 0l20 5.4c.1 0 .2.1.3.2.1.1.1.2.1.3 0 .1-.1.2-.2.2 0 .1-.1.1-.3.1z" class="st1"/>
    <path d="M158.1 68.7c-.1 0-.3 0-.4-.1-.1-.1-.2-.2-.2-.3s0-.2.1-.3c.1-.1.2-.1.3-.1l24.7-5.4h.4c.1 0 .1.1.1.1l.1.1v.2c0 .1 0 .1-.1.1l-.1.1c-.1 0-.1.1-.2.1l-24.7 5.4c.2.1 0 .1 0 .1z" class="st1"/>
    <path d="M182.8 63.2h-.1c-.1 0-.1 0-.2-.1-.1 0-.1-.1-.1-.1l-.1-.1v-.1l2.8-9.8s0-.1.1-.1l.1-.1c.1 0 .1 0 .2-.1h.2c.1 0 .1 0 .2.1.1 0 .1.1.1.1l.1.1v.2l-2.8 9.8c0 .1-.1.2-.2.2h-.3z" class="st1"/>
    <path d="M185.7 53.4h-.1l-18.9-4.5c-.1 0-.2-.1-.3-.2-.1-.1-.1-.2 0-.3 0-.1.1-.2.2-.2.1-.1.2-.1.4 0l18.9 4.5c.1 0 .2.1.3.2.1.1.1.2 0 .3 0 .1-.1.2-.2.2h-.3z" class="st1"/>
    <path d="M143.9 53.4c-.1 0-.2 0-.3-.1l-.2-.2V53s0-.1.1-.1l.1-.1c.1 0 .1 0 .2-.1l22.9-4.5h.2c.1 0 .1 0 .2.1.1 0 .1.1.1.1l.1.1v.2c0 .1 0 .1-.1.1l-.1.1s-.1.1-.2.1L144 53.4h-.1zm38.9 9.8h-.1c-.1 0-.1 0-.2-.1l-.1-.1-.1-.1v-.1l2.8-9.8s0-.1.1-.1l.1-.1c.1 0 .1 0 .2-.1h.2c.1 0 .1 0 .2.1.1 0 .1.1.1.1l.1.1v.2l-2.8 9.8c0 .1-.1.2-.2.2h-.3z" class="st1"/>
    <path d="M204.4 68.7h-.1l-21.5-5.4c-.1 0-.1 0-.2-.1l-.1-.1s0-.1-.1-.1v-.1s0-.1.1-.1.1-.1.1-.1h.4l21.5 5.4c.1 0 .1 0 .2.1l.1.1s0 .1.1.1v.1c0 .1-.1.1-.2.2h-.3z" class="st1"/>
    <path d="M204.4 68.7c-.1 0-.2 0-.3-.1-.1 0-.1-.1-.2-.2v-.1s0-.1.1-.1l.1-.1s.1-.1.2-.1l23.1-5.4h.4c.1 0 .1.1.1.1l.1.1v.1s0 .1-.1.1l-.1.1s-.1.1-.2.1l-23.1 5.4c0 .1-.1.1-.1.1z" class="st1"/>
    <path d="M227.5 63.2c-.1 0-.2 0-.3-.1-.1-.1-.1-.2-.1-.3V53c0-.1 0-.2.1-.3.1-.1.2-.1.3-.1.1 0 .2 0 .3.1.1.1.1.2.1.3v9.8c0 .1 0 .2-.1.3-.1.1-.2.1-.3.1z" class="st1"/>
    <use xlink:href="#reuse-1" class="st1"/>
    <path d="M185.7 53.4c-.1 0-.2 0-.3-.1l-.2-.2v-.3c.1-.1.2-.1.3-.2l21.6-4.5h.2c.1 0 .1 0 .2.1.1 0 .1.1.1.1l.1.1v.2c0 .1 0 .1-.1.1l-.1.1s-.1.1-.2.1l-21.6 4.5zm41.8 9.8c-.1 0-.2 0-.3-.1-.1-.1-.1-.2-.1-.3V53c0-.1.1-.2.1-.3.1-.1.2-.1.3-.1.1 0 .2 0 .3.1.1.1.1.2.1.3v9.8c0 .1-.1.2-.1.3-.1.1-.2.1-.3.1z" class="st1"/>
    <path d="M250.6 68.7h-.1l-23.1-5.5c-.1 0-.1 0-.2-.1-.1 0-.1-.1-.1-.1l-.1-.1v-.2c0-.1.1-.1.1-.1s.1-.1.2-.1h.4l23.1 5.4c.1 0 .1 0 .2.1l.1.1s0 .1.1.1v.1c0 .1-.1.1-.2.2-.2.2-.3.2-.4.2z" class="st1"/>
    <path d="M250.6 68.7h-.2c-.1 0-.1 0-.2-.1s-.2-.2-.2-.3c0-.1 0-.2.1-.3s.2-.1.3-.2l21.5-5.4h.4c.1 0 .1.1.2.1l.1.1v.2c0 .1 0 .1-.1.1l-.1.1c-.1 0-.1.1-.2.1l-21.5 5.4c0 .2 0 .2-.1.2z" class="st1"/>
    <path d="M272.2 63.2c-.1 0-.2 0-.3-.1l-.2-.2-2.8-9.8v-.2c0-.1 0-.1.1-.1l.1-.1c.1 0 .1 0 .2-.1h.2c.1 0 .1 0 .2.1.1 0 .1.1.1.1l.1.1 2.8 9.8c0 .1 0 .2-.1.3-.1.1-.2.1-.3.2h-.1z" class="st1"/>
    <path d="M269.3 53.4h-.1l-21.6-4.5c-.1 0-.2-.1-.3-.2-.1-.1-.1-.2 0-.3 0 0 0-.1.1-.1l.1-.1h.4l21.5 4.5c.1 0 .2.1.3.1.1.1.1.2.1.3 0 .1-.1.2-.2.3h-.3z" class="st1"/>
    <path d="M227.5 53.4c-.1 0-.2 0-.3-.1l-.2-.2v-.3c0-.1.2-.1.3-.2l20.3-4.5h.4c.1 0 .2.1.2.2v.1s0 .1-.1.1l-.1.1s-.1.1-.2.1l-20.3 4.5c.1.2 0 .2 0 .2zm44.7 9.8c-.1 0-.2 0-.3-.1l-.2-.2-2.8-9.8v-.2c0-.1 0-.1.1-.1l.1-.1c.1 0 .1 0 .2-.1h.2c.1 0 .1 0 .2.1.1 0 .1.1.1.1l.1.1 2.8 9.8v.1s0 .1-.1.1l-.1.1c-.1 0-.1 0-.2.1l-.1.1z" class="st1"/>
    <path d="M296.9 68.7h-.1L272 63.2c-.1 0-.1 0-.2-.1l-.1-.1-.1-.1v-.1c0-.1.1-.2.2-.2s.2-.1.4 0L297 68c.1 0 .2.1.3.2.1.1.1.2.1.3 0 .1-.1.2-.2.2h-.3z" class="st1"/>
    <path d="M296.9 68.7c-.1 0-.3 0-.4-.1-.1-.1-.2-.1-.2-.2s0-.2.1-.3c.1-.1.2-.1.3-.2l20-5.4h.4c.2 0 .2.1.2.2v.3c-.1.1-.2.2-.3.2l-19.9 5.5h-.2z" class="st1"/>
    <path d="M316.8 63.2c-.1 0-.2 0-.3-.1-.1 0-.1-.1-.2-.2l-5.7-9.8c-.1-.1-.1-.2 0-.3 0-.1.1-.2.2-.2h.4c.1 0 .1 0 .2.1l.1.1 5.7 9.8v.2l-.1.1-.1.1c0 .2-.1.2-.2.2z" class="st1"/>
    <path d="M311.1 53.4h-.1l-22.8-4.5c-.1 0-.1 0-.2-.1-.1 0-.1-.1-.1-.1l-.1-.1v-.2s0-.1.1-.1l.1-.1c.1 0 .1 0 .2-.1h.2l22.9 4.5c.1 0 .2.1.3.2.1.1.1.2.1.3 0 .1-.1.2-.2.2-.2.1-.3.1-.4.1z" class="st1"/>
    <path d="M269.3 53.4c-.1 0-.2 0-.3-.1-.1 0-.1-.1-.2-.2v-.3c.1-.1.2-.2.3-.2l18.9-4.5h.4c.1 0 .1.1.1.1l.1.1v.2c0 .1 0 .1-.1.1l-.1.1c-.1 0-.1.1-.2.1l-18.9 4.5c.1.1.1.1 0 .1zm47.5 9.8c-.1 0-.2 0-.3-.1l-.2-.2-5.7-9.8v-.2l.1-.1.1-.1h.4c.1 0 .1 0 .2.1l.1.1 5.7 9.8c.1.1.1.2 0 .3 0 .1-.1.2-.2.2h-.2z" class="st1"/>
    <use xlink:href="#reuse-2" class="st1"/>
    <path d="m359.5 63-16.6 5c-.1 0-.1 0-.2.1l-.1.1v.2c0 .1.1.1.2.2.1 0 .2.1.3.1h.2l16.3-4.8V63zm0-3.1-6.2-7.1-.1-.1c-.1 0-.1 0-.2-.1h-.2c-.1 0-.1 0-.2.1-.1 0-.1.1-.1.1l-.1.1v.1s0 .1.1.1l7 8v-1.2z" class="st1"/>
    <path d="M352.9 53.4h-.1l-24.1-4.5c-.1 0-.2-.1-.3-.2-.1-.1-.1-.2-.1-.3 0-.1.1-.2.2-.2.1-.1.2-.1.4 0l24.1 4.5c.1 0 .2.1.3.2.1.1.1.2.1.3 0 .1-.1.2-.2.2h-.3z" class="st1"/>
    <path d="M311.1 53.4c-.1 0-.2 0-.3-.1-.1 0-.1-.1-.2-.2V53s0-.1.1-.1l.1-.1s.1-.1.2-.1l17.7-4.5h.3c.1 0 .2.1.2.2v.2l-.1.1s-.1.1-.2.1l-17.7 4.5-.1.1zm48.4 6.5-6.2-7.1-.1-.1c-.1 0-.1 0-.2-.1h-.2c-.1 0-.1 0-.2.1s-.2.1-.2.2 0 .2.1.3l7 8v-1.3z" class="st1"/>
    <path d="m359.5 50.8-6.7 1.8c-.1 0-.2.1-.3.2-.1.1-.1.2 0 .3 0 .1.1.1.2.2.1 0 .2.1.3.1h.2l6.4-1.8-.1-.8zm-206.6 30h-.2c-.1 0-.2-.1-.3-.2-.1-.1-.1-.2 0-.3l5.3-12.1c0-.1.1-.2.2-.2s.2-.1.4 0c.1 0 .2.1.3.2.1.1.1.2 0 .3l-5.3 12.1c0 .1-.1.1-.2.2h-.2z" class="st1"/>
    <path d="M158.1 68.7h-.1l-20-5.5c-.1 0-.2-.1-.3-.2-.1-.1-.1-.2 0-.3 0-.1.1-.2.2-.2s.2-.1.4 0l20 5.4c.1 0 .2.1.3.2.1.1.1.2 0 .3 0 .1-.1.1-.2.2s-.2.1-.3.1z" class="st1"/>
    <path d="M152.9 80.8h-.2c-.1 0-.1 0-.2-.1l-.1-.1v-.2l5.3-12.1.1-.1.1-.1h.4c.1 0 .1 0 .2.1l.1.1v.2l-5.3 12.1c0 .1-.1.1-.2.2h-.2z" class="st1"/>
    <path d="M175.8 87.6h-.2l-22.9-6.8c-.1 0-.2-.1-.3-.2-.1-.1-.1-.2 0-.3 0-.1.1-.2.2-.2h.4l22.9 6.8c.1 0 .2.1.3.2.1.1.1.2 0 .3 0 .1-.1.1-.2.2h-.2z" class="st1"/>
    <path d="M175.8 87.6c-.1 0-.2 0-.3-.1-.1 0-.1-.1-.2-.2V87c.1-.1.2-.2.3-.2l26.8-6.8h.4c.1 0 .1.1.1.1l.1.1v.2l-.1.1s-.1.1-.2.1l-26.8 6.8-.1.2z" class="st1"/>
    <path d="M202.6 80.8c-.2 0-.3-.1-.4-.1-.1-.1-.1-.2-.1-.3l1.8-12.1c0-.1.1-.2.2-.3.1-.1.2-.1.3-.1.1 0 .2.1.3.1.1.1.1.2.1.3L203 80.4c0 .1-.1.2-.2.2 0 .2-.1.2-.2.2z" class="st1"/>
    <path d="M204.4 68.7h-.2l-21.5-5.4c-.1 0-.1 0-.2-.1l-.1-.1s0-.1-.1-.1v-.1s0-.1.1-.1.1-.1.1-.1h.4l21.5 5.4c.1 0 .1 0 .2.1.1 0 .1.1.1.1l.1.1v.1s0 .1-.1.1l-.1.1c-.1 0-.1.1-.2.1.1-.1 0-.1 0-.1z" class="st1"/>
    <path d="M158.1 68.7h-.2c-.1 0-.1 0-.2-.1s-.2-.2-.2-.3c0-.1 0-.2.1-.3.1-.1.2-.1.3-.1l24.7-5.4h.4c.1.1.2.1.2.2s0 .2-.1.3c-.1.1-.2.2-.3.2l-24.7 5.4v.1zm44.5 12.1c-.2 0-.3-.1-.4-.1-.1-.1-.1-.2-.1-.3l1.8-12.1c0-.1.1-.2.2-.3.1-.1.2-.1.3-.1.1 0 .2.1.3.1.1.1.1.2.1.3L203 80.4c0 .1-.1.2-.2.2s-.1.2-.2.2z" class="st1"/>
    <path d="M227.5 87.6h-.2l-24.9-6.8c-.1 0-.2-.1-.3-.2-.1-.1-.1-.2 0-.3 0-.1.1-.2.2-.2s.3-.1.4 0l24.9 6.8c.1 0 .1 0 .2.1l.1.1v.2c0 .1-.1.2-.2.2 0 .1-.1.1-.2.1z" class="st1"/>
    <path d="M227.5 87.6c-.1 0-.2 0-.3-.1-.1 0-.1-.1-.2-.2V87c.1-.1.2-.2.3-.2l24.9-6.8h.4c.1 0 .2.1.2.2v.3c-.1.1-.2.2-.3.2l-24.9 6.8c0 .1-.1.1-.1.1z" class="st1"/>
    <path d="M252.4 80.8c-.1 0-.2 0-.3-.1l-.2-.2-1.8-12.1c0-.1 0-.2.1-.3.1-.1.2-.1.3-.1.1 0 .3 0 .3.1.1.1.2.2.2.3l1.8 12.1v.1s0 .1-.1.1l-.1.1c-.1-.1-.1 0-.2 0z" class="st1"/>
    <path d="M250.6 68.7h-.1l-23.1-5.5c-.1 0-.1 0-.2-.1-.1 0-.1-.1-.1-.1l-.1-.1v-.2c0-.1.1-.1.1-.1s.1-.1.2-.1h.4l23.1 5.4c.1 0 .2.1.3.2.1.1.1.2 0 .3 0 .1-.1.1-.2.2s-.2.1-.3.1z" class="st1"/>
    <path d="M204.4 68.7c-.1 0-.2 0-.3-.1-.1 0-.1-.1-.2-.2v-.1s0-.1.1-.1l.1-.1s.1-.1.2-.1l23.1-5.4h.4c.1 0 .1.1.2.1l.1.1v.2c0 .1 0 .1-.1.1l-.1.1c-.1 0-.1.1-.2.1l-23.1 5.4h-.2zm48 12.1c-.1 0-.2 0-.3-.1l-.2-.2-1.8-12.1c0-.1 0-.2.1-.3.1-.1.2-.1.3-.1.1 0 .3 0 .3.1.1.1.2.2.2.3l1.8 12.1c0 .1 0 .2-.1.3 0-.1-.1 0-.3 0z" class="st1"/>
    <path d="M279.2 87.6h-.1l-26.8-6.8c-.1 0-.2-.1-.3-.2s-.1-.2 0-.3c0-.1.1-.2.2-.2s.2-.1.4 0l26.8 6.8c.1 0 .2.1.3.2.1.1.1.2.1.3 0 .1-.1.2-.2.3-.1-.1-.3-.1-.4-.1z" class="st1"/>
    <path d="M279.2 87.6c-.1 0-.2 0-.3-.1-.1 0-.1-.1-.2-.2V87c0-.1.1-.2.3-.2l22.9-6.8h.4c.1 0 .2.1.3.2v.3c-.1.1-.1.2-.3.2l-22.9 6.8c-.1.1-.1.1-.2.1z" class="st1"/>
    <path d="M302.1 80.8c-.1 0-.2 0-.3-.1-.1 0-.1-.1-.2-.2l-5.3-12.1v-.2l.1-.1s.1-.1.2-.1h.4c.1 0 .1.1.1.1l.1.1 5.3 12.1v.3c-.1.1-.2.2-.3.2h-.1z" class="st1"/>
    <path d="M296.9 68.7h-.1L272 63.2c-.1 0-.1 0-.2-.1l-.1-.1-.1-.1v-.1c0-.1.1-.2.2-.2s.2-.1.4 0L297 68c.1 0 .2.1.3.2.1.1.1.2 0 .3 0 .1-.1.1-.2.2h-.2z" class="st1"/>
    <path d="M250.6 68.7c-.1 0-.2 0-.3-.1-.1 0-.1-.1-.2-.2v-.1s0-.1.1-.1l.1-.1s.1-.1.2-.1l21.5-5.4h.4c.1 0 .1.1.2.1l.1.1v.2c0 .1 0 .1-.1.1l-.1.1c-.1 0-.1.1-.2.1l-21.5 5.4h-.2zm51.5 12.1c-.1 0-.2 0-.3-.1-.1 0-.1-.1-.2-.2l-5.3-12.1v-.3c.1-.1.2-.2.3-.2h.4c.1 0 .2.1.2.2l5.3 12.1v.3c-.1.1-.1.2-.3.2 0 .1 0 .1-.1.1z" class="st1"/>
    <path d="M330.9 87.6h-.1L302 80.8c-.1 0-.2-.1-.3-.2-.1-.1-.1-.2 0-.3 0-.1.1-.2.2-.2s.2-.1.4 0l28.8 6.8c.1 0 .2.1.3.2.1.1.1.2 0 .3 0 .1-.1.1-.2.2h-.3z" class="st1"/>
    <path d="M330.9 87.6c-.1 0-.2 0-.3-.1-.1 0-.1-.1-.2-.2v-.2l.1-.1s.1-.1.2-.1l20.9-6.8h.4c.2 0 .2.1.3.2v.3c0 .1-.1.2-.3.2l-21 6.8h-.1z" class="st1"/>
    <path d="M351.9 80.8c-.1 0-.2 0-.2-.1s-.1-.1-.2-.1l-8.8-12.1-.1-.1v-.1s0-.1.1-.1.1-.1.1-.1h.4c.1 0 .1 0 .2.1l.1.1 8.8 12.1.1.1v.1s0 .1-.1.1l-.1.1h-.3z" class="st1"/>
    <use xlink:href="#reuse-2" class="st1"/>
    <path d="M296.9 68.7c-.1 0-.2 0-.3-.1-.1 0-.1-.1-.2-.2v-.2l.1-.1s.1-.1.2-.1l20-5.4h.4c.1 0 .1.1.1.1l.1.1v.2l-.1.1s-.1.1-.2.1l-19.9 5.4c-.1.1-.2.1-.2.1zm55 12.1c-.1 0-.2 0-.2-.1-.1 0-.1-.1-.2-.1l-8.8-12.1c-.1-.1-.1-.2 0-.3 0-.1.1-.2.2-.2s.2-.1.4 0c.1 0 .2.1.3.2l8.8 12.1c.1.1.1.2 0 .3 0 .1-.1.2-.2.2h-.3z" class="st1"/>
    <path d="m359.5 81.7-7.6-1.7h-.4c-.1 0-.2.1-.2.2v.1s0 .1.1.1l.1.1s.1.1.2.1l7.8 1.7v-.6zm0-18.7-16.6 5c-.1 0-.1 0-.2.1l-.1.1v.2c0 .1.1.1.2.2.1 0 .2.1.3.1h.2l16.3-4.8-.1-.9zM175.8 87.6h-.2l-22.9-6.8c-.1 0-.1 0-.2-.1l-.1-.1v-.2c0-.1.1-.2.2-.2h.4l22.9 6.8c.1 0 .2.1.3.2.1.1.1.2 0 .3 0 .1-.1.1-.2.2 0-.1-.1-.1-.2-.1zm22.4 24c-.1 0-.2 0-.3-.1-.1 0-.1-.1-.2-.2v-.3c.1-.1.1-.2.3-.2l29.3-8.7h.4c.1 0 .1.1.1.1l.1.1v.3c-.1.1-.1.2-.3.2l-29.3 8.7-.1.1z" class="st1"/>
    <path d="M227.5 102.9c-.1 0-.2 0-.3-.1-.1-.1-.1-.2-.1-.3V87.2c0-.1 0-.2.1-.3.1-.1.2-.1.3-.1s.2 0 .3.1c.1.1.1.2.1.3v15.3c0 .1 0 .2-.1.3-.1 0-.2.1-.3.1z" class="st1"/>
    <path d="M227.5 87.6h-.2l-24.9-6.8c-.1 0-.2-.1-.3-.2-.1-.1-.1-.2 0-.3 0 0 0-.1.1-.1l.1-.1h.4l24.9 6.8c.1 0 .1 0 .2.1l.1.1v.2c0 .1-.1.1-.2.2 0 .1-.1.1-.2.1z" class="st1"/>
    <path d="M175.8 87.6c-.1 0-.2 0-.3-.1-.1 0-.1-.1-.2-.2V87c.1-.1.2-.2.3-.2l26.8-6.8h.4c.1 0 .1.1.1.1l.1.1v.2l-.1.1s-.1.1-.2.1l-26.8 6.8-.1.2zm51.7 15.3c-.1 0-.2 0-.3-.1-.1-.1-.1-.2-.1-.3V87.2c0-.1 0-.2.1-.3.1-.1.2-.1.3-.1s.2 0 .3.1c.1.1.1.2.1.3v15.3c0 .1-.1.2-.1.3-.1 0-.2.1-.3.1z" class="st1"/>
    <path d="M256.8 111.6h-.2l-29.3-8.7c-.1 0-.2-.1-.3-.2-.1-.1-.1-.2 0-.3l.1-.1s.1-.1.2-.1h.4l29.3 8.7c.1 0 .1 0 .2.1l.1.1v.2c0 .1-.1.1-.2.2s-.2.1-.3.1z" class="st1"/>
    <path d="M256.8 111.6c-.1 0-.2 0-.3-.1-.1 0-.1-.1-.2-.2v-.2l.1-.1s.1-.1.2-.1l26.8-8.7h.4c.1 0 .2.1.3.2v.3c0 .1-.1.2-.3.2l-26.8 8.7c0-.1-.1 0-.2 0z" class="st1"/>
    <path d="M283.7 102.9c-.1 0-.2 0-.3-.1l-.2-.2-4.4-15.3v-.1s0-.1.1-.1l.1-.1c.1 0 .1 0 .2-.1h.2c.1 0 .1 0 .2.1.1 0 .1.1.1.1l.1.1 4.4 15.3v.1s0 .1-.1.1l-.1.1c-.1 0-.1 0-.2.1h-.1z" class="st1"/>
    <path d="M279.2 87.6h-.1l-26.8-6.8c-.1 0-.1 0-.2-.1l-.1-.1s0-.1-.1-.1v-.1s0-.1.1-.1l.1-.1h.4l26.8 6.8c.1 0 .2.1.3.2.1.1.1.2.1.3 0 .1-.1.2-.2.3 0-.2-.2-.2-.3-.2z" class="st1"/>
    <path d="M227.5 87.6c-.1 0-.2 0-.3-.1-.1 0-.1-.1-.2-.2V87c.1-.1.2-.2.3-.2l24.9-6.8h.4c.1 0 .2.1.2.2v.3c-.1.1-.2.2-.3.2l-24.9 6.8c0 .1-.1.1-.1.1zm56.1 15.3c-.1 0-.2 0-.3-.1l-.2-.2-4.4-15.3v-.1s0-.1.1-.1l.1-.1c.1 0 .1 0 .2-.1.1 0 .3 0 .4.1.1.1.2.1.2.2l4.4 15.3v.1s0 .1-.1.1l-.1.1c-.1 0-.1 0-.2.1h-.1z" class="st1"/>
    <path d="M315.5 111.6h-.2l-31.9-8.7c-.1 0-.2-.1-.3-.2-.1-.1-.1-.2 0-.3 0-.1.1-.2.2-.2s.2-.1.4 0l31.9 8.7c.1 0 .2.1.3.2.1.1.1.2.1.3 0 .1-.1.2-.2.2h-.3z" class="st1"/>
    <path d="M315.5 111.6c-.1 0-.2 0-.3-.1-.1 0-.1-.1-.2-.2s-.1-.2 0-.3c0-.1.1-.2.2-.2l24.4-8.7h.4c.1 0 .2.1.3.2v.2l-.1.1s-.1.1-.2.1l-24.3 8.7c0 .2-.1.2-.2.2z" class="st1"/>
    <path d="M339.8 102.9c-.1 0-.2 0-.3-.1-.1 0-.1-.1-.2-.2l-8.9-15.3-.1-.1V87c0-.1.1-.1.1-.1s.1-.1.2-.1h.4c.1 0 .1.1.2.1l.1.1 8.9 15.3v.2l-.1.1-.1.1c-.1.2-.1.2-.2.2z" class="st1"/>
    <path d="M330.9 87.6h-.1L302 80.8c-.1 0-.1 0-.2-.1-.1 0-.1-.1-.1-.1l-.1-.1v-.2s0-.1.1-.1l.1-.1h.4l28.8 6.8c.1 0 .2.1.3.2.1.1.1.2 0 .3 0 .1-.1.2-.2.2h-.2z" class="st1"/>
    <path d="M279.2 87.6c-.1 0-.2 0-.3-.1-.1 0-.1-.1-.2-.2V87c0-.1.1-.2.3-.2l22.9-6.8h.4c.1 0 .2.1.3.2v.3c-.1.1-.1.2-.3.2l-22.9 6.8c-.1.1-.1.1-.2.1zm60.6 15.3c-.1 0-.2 0-.3-.1-.1 0-.1-.1-.2-.2l-8.9-15.3v-.2l.1-.1.1-.1h.4c.1 0 .1 0 .2.1l.1.1 8.9 15.3v.2l-.1.1-.1.1c-.1.1-.1.1-.2.1z" class="st1"/>
    <path d="m359.5 107.1-19.6-4.9h-.4c-.1 0-.2.1-.2.2v.3c.1.1.2.2.3.2l19.9 5v-.8zm0-25.4-7.6-1.7h-.2c-.1 0-.1 0-.2.1l-.1.1-.1.1v.2c0 .1 0 .1.1.1l.1.1c.1 0 .1.1.2.1l7.8 1.7v-.8z" class="st1"/>
    <path d="M330.9 87.6c-.1 0-.2 0-.3-.1-.1 0-.1-.1-.2-.2v-.2l.1-.1s.1-.1.2-.1l20.9-6.8h.4c.2 0 .2.1.3.2v.3c0 .1-.1.2-.3.2l-21 6.8h-.1zM24.2 143c-.1 0-.3 0-.4-.1-.1-.1-.2-.1-.2-.2s0-.2.1-.3c.1-.1.2-.1.3-.2l42.2-11.4h.4c.1 0 .1.1.1.1l.1.1v.3c-.1.1-.2.2-.3.2L24.3 143h-.1z" class="st1"/>
    <path d="M92 143h-.2l-25.6-11.5c-.1 0-.1-.1-.2-.1l-.1-.1v-.2c0-.1 0-.1.1-.1l.1-.1c.1 0 .1-.1.2-.1h.2c.1 0 .1 0 .2.1l25.6 11.5c.1 0 .2.1.2.2v.3c0 .1-.1.1-.2.1H92z" class="st1"/>
    <path d="M92 143c-.1 0-.2 0-.3-.1-.1 0-.1-.1-.2-.2v-.3c0-.1.1-.2.3-.2l38.9-11.5h.4c.1 0 .2.1.2.2v.3c-.1.1-.1.2-.3.2l-38.9 11.5c0 .1-.1.1-.1.1z" class="st1"/>
    <path d="M159.7 143h-.2l-28.9-11.5c-.1 0-.1-.1-.1-.1l-.1-.1v-.1s0-.1.1-.1l.1-.1s.1-.1.2-.1h.4l28.9 11.5c.1 0 .2.1.3.2s.1.2.1.3c0 .1-.1.2-.2.2-.3-.1-.4-.1-.6-.1z" class="st1"/>
    <path d="M159.7 143c-.1 0-.2 0-.3-.1-.1 0-.1-.1-.2-.2v-.2l.1-.1s.1-.1.2-.1l35.6-11.5h.4c.1 0 .1 0 .2.1l.1.1v.2l-.1.1s-.1.1-.2.1L159.9 143h-.2z" class="st1"/>
    <path d="M195.3 131.5c-.2 0-.3-.1-.4-.1-.1-.1-.1-.2-.1-.3l2.9-19.9c0-.1.1-.2.2-.3.1-.1.2-.1.4-.1.1 0 .2.1.3.1.1.1.1.2.1.3l-2.8 19.9c0 .1-.1.2-.2.2-.2.1-.3.2-.4.2z" class="st1"/>
    <path d="M195.3 131.5h-.2c-.1 0-.1-.1-.1-.1l-.1-.1v-.1l2.9-19.9c0-.1.1-.2.2-.3.1-.1.2-.1.3-.1.1 0 .2.1.3.1.1.1.1.2.1.3l-2.8 19.9c0 .1-.1.2-.2.2-.2 0-.3.1-.4.1z" class="st1"/>
    <use xlink:href="#reuse-3" class="st1"/>
    <path d="M227.5 143c-.1 0-.2 0-.3-.1-.1 0-.1-.1-.2-.2s-.1-.2 0-.3c0-.1.1-.2.2-.2l32.2-11.5h.4c.1 0 .2.1.3.2.1.1.1.2 0 .3 0 .1-.1.2-.2.2l-32.2 11.5c-.1.1-.1.1-.2.1z" class="st1"/>
    <path d="M259.7 131.5c-.1 0-.2 0-.3-.1l-.2-.2-2.8-19.9v-.1s0-.1.1-.1l.1-.1h.4c.1 0 .1 0 .2.1l.1.1s0 .1.1.1l2.9 19.9c0 .1 0 .2-.1.3-.1.1-.2.1-.3.1l-.2-.1z" class="st1"/>
    <path d="M256.8 111.6h-.2l-29.3-8.7c-.1 0-.2-.1-.3-.2-.1-.1-.1-.2 0-.3l.1-.1s.1-.1.2-.1h.4l29.3 8.7c.1 0 .2.1.3.2.1.1.1.2 0 .3 0 .1-.1.1-.2.2-.1-.1-.2 0-.3 0z" class="st1"/>
    <path d="M198.2 111.6c-.1 0-.2 0-.3-.1-.1 0-.1-.1-.2-.2v-.3c.1-.1.1-.2.3-.2l29.3-8.7h.4c.1 0 .1.1.1.1l.1.1v.2l-.1.1s-.1.1-.2.1l-29.3 8.7c0 .1-.1.2-.1.2zm61.5 19.9c-.1 0-.2 0-.3-.1l-.2-.2-2.9-19.9v-.1s0-.1.1-.1l.1-.1h.4c.1 0 .1 0 .2.1l.1.1.1.1 2.8 19.9v.1s0 .1-.1.1l-.1.1c-.1-.1-.1 0-.2 0z" class="st1"/>
    <path d="M295.3 143h-.2l-35.6-11.5c-.1 0-.2-.1-.3-.2 0-.1-.1-.2 0-.3s.1-.2.3-.2h.4l35.6 11.5c.1 0 .1 0 .2.1l.1.1v.2c0 .1-.1.1-.2.2-.2.1-.3.1-.3.1z" class="st1"/>
    <use xlink:href="#b" class="st1"/>
    <path d="M324.1 131.5c-.1 0-.2 0-.3-.1-.1 0-.1-.1-.2-.2l-8.7-19.9v-.3c.1-.1.1-.2.3-.2h.4c.1 0 .1.1.1.1l.1.1 8.7 19.9v.3c-.1.1-.1.2-.3.2.1.1 0 .1-.1.1z" class="st1"/>
    <path d="M315.5 111.6h-.2l-31.8-8.7c-.1 0-.2-.1-.3-.2-.1-.1-.1-.2 0-.3 0-.1.1-.2.2-.2s.2-.1.4 0l31.8 8.7c.1 0 .2.1.3.2.1.1.1.2.1.3 0 .1-.1.2-.2.2h-.3z" class="st1"/>
    <path d="M256.8 111.6c-.1 0-.2 0-.3-.1-.1 0-.1-.1-.2-.2v-.2l.1-.1s.1-.1.2-.1l26.8-8.7h.4c.1 0 .1 0 .2.1l.1.1v.2l-.1.1s-.1.1-.2.1l-26.8 8.7c-.1 0-.1.1-.2.1zm67.3 19.9c-.1 0-.2 0-.3-.1-.1 0-.1-.1-.2-.2l-8.7-19.9v-.2l.1-.1s.1-.1.2-.1h.4c.1 0 .2.1.2.2l8.7 19.9v.2l-.1.1s-.1.1-.2.1c0 .1 0 .1-.1.1z" class="st1"/>
    <path d="m359.5 141.2-35.2-10.4h-.4c-.1 0-.1.1-.2.1l-.1.1v.2l.1.1s.1.1.2.1l35.6 10.5v-.7zm0-34.1-19.6-4.9h-.4c-.1 0-.2.1-.2.2v.3c.1.1.2.2.3.2l19.9 5v-.8z" class="st1"/>
    <path d="M315.5 111.6c-.1 0-.2 0-.3-.1-.1 0-.1-.1-.2-.2s-.1-.2 0-.3c0-.1.1-.2.2-.2l24.4-8.7h.4c.1 0 .2.1.3.2v.2l-.1.1s-.1.1-.2.1l-24.3 8.7c0 .2-.1.2-.2.2zM.8 170c-.1 0-.2 0-.3-.1-.1-.1-.2-.1-.2-.2s0-.2.1-.3l23.5-27 .1-.1c.1 0 .1 0 .2-.1h.2c.1 0 .1 0 .2.1.1 0 .1.1.1.1l.1.1v.1s0 .1-.1.1l-23.5 27c0 .1-.1.1-.2.1-.1.1-.1.2-.2.2z" class="st1"/>
    <path d="M.8 170c-.1 0-.2 0-.3-.1-.1 0-.1-.1-.1-.1l-.1-.1v-.1s0-.1.1-.1l23.5-27 .1-.1c.1 0 .1 0 .2-.1h.2c.1 0 .1 0 .2.1s.2.1.2.2 0 .2-.1.3l-23.5 27c0 .1-.1.1-.2.1-.1-.1-.1 0-.2 0zm75.5 0h-.2c-.1 0-.1 0-.1-.1l-.1-.1v-.2l15.6-27 .1-.1s.1-.1.2-.1h.4c.1 0 .1 0 .1.1l.1.1v.2l-15.6 27c0 .1-.1.1-.2.2-.1-.1-.2 0-.3 0z" class="st1"/>
    <path d="M92 143h-.2l-25.6-11.5c-.1 0-.1-.1-.1-.1l-.1-.1v-.1s0-.1.1-.1l.1-.1s.1-.1.2-.1h.4l25.6 11.5c.1 0 .2.1.2.2v.3c0 .1-.1.1-.2.1H92z" class="st1"/>
    <path d="M24.2 143c-.1 0-.3 0-.4-.1-.1-.1-.2-.1-.2-.2s0-.2.1-.3c.1-.1.2-.1.3-.2l42.2-11.4h.4c.1 0 .1.1.1.1l.1.1v.3c-.1.1-.2.2-.3.2L24.3 143h-.1zm52.1 27h-.2c-.1 0-.1 0-.1-.1l-.1-.1v-.2l15.6-27c.1-.1.2-.1.3-.2h.3c.1 0 .2.1.2.2s.1.2 0 .3l-15.6 27c0 .1-.1.1-.2.2 0-.2-.1-.1-.2-.1zm75.6 0h-.1c-.1 0-.1 0-.2-.1-.1 0-.1-.1-.1-.1l-.1-.1v-.1l7.8-27s0-.1.1-.1l.1-.1c.1 0 .1 0 .2-.1h.2c.1 0 .2.1.3.2.1.1.1.2.1.3l-7.8 27c0 .1-.1.2-.2.2-.1-.1-.2 0-.3 0z" class="st1"/>
    <path d="M159.7 143h-.2l-28.9-11.5c-.1 0-.1-.1-.1-.1l-.1-.1v-.2l.1-.1s.1-.1.2-.1h.4l28.9 11.5c.1 0 .1 0 .2.1.1 0 .1.1.1.1l.1.1v.2s0 .1-.1.1l-.1.1c-.1 0-.1 0-.2.1-.1-.2-.2-.2-.3-.2z" class="st1"/>
    <path d="M92 143c-.1 0-.2 0-.3-.1-.1 0-.1-.1-.2-.2v-.3c0-.1.1-.2.3-.2l38.9-11.5h.4c.1 0 .2.1.2.2v.3c-.1.1-.1.2-.3.2l-38.9 11.5c0 .1-.1.1-.1.1zm59.9 27h-.1c-.1 0-.1 0-.2-.1-.1 0-.1-.1-.1-.1l-.1-.1v-.1l7.8-27s0-.1.1-.1l.1-.1c.1 0 .1 0 .2-.1h.2c.1 0 .1 0 .2.1.1 0 .1.1.1.1l.1.1v.2l-7.8 27c0 .1-.1.2-.2.2-.1-.1-.2 0-.3 0zm75.6 0c-.1 0-.2 0-.3-.1-.1-.1-.1-.2-.1-.3v-27c0-.1 0-.2.1-.3.1-.1.2-.1.3-.1s.2 0 .3.1c.1.1.1.2.1.3v27c0 .1 0 .2-.1.3-.1 0-.2.1-.3.1z" class="st1"/>
    <use xlink:href="#reuse-3" class="st1"/>
    <path d="M159.7 143c-.1 0-.2 0-.3-.1-.1 0-.1-.1-.2-.2v-.2l.1-.1s.1-.1.2-.1l35.6-11.5h.4c.1 0 .1 0 .2.1l.1.1v.2l-.1.1s-.1.1-.2.1L159.9 143h-.2zm67.8 27c-.1 0-.2 0-.3-.1-.1-.1-.1-.2-.1-.3v-27c0-.1.1-.2.1-.3.1-.1.2-.1.3-.1.1 0 .2 0 .3.1.1.1.1.2.1.3v27c0 .1-.1.2-.1.3-.1 0-.2.1-.3.1zm75.6 0c-.1 0-.2 0-.3-.1l-.2-.2-7.8-27v-.2s0-.1.1-.1l.1-.1s.1 0 .2-.1h.2c.1 0 .1 0 .2.1.1 0 .1.1.1.1l.1.1 7.8 27v.1s0 .1-.1.1l-.1.1c-.1 0-.1 0-.2.1l-.1.1z" class="st1"/>
    <path d="M295.3 143h-.2l-35.6-11.5c-.1 0-.2-.1-.3-.2v-.3c0-.1.1-.2.3-.2h.4l35.5 11.5c.1 0 .1 0 .2.1l.1.1v.2c0 .1-.1.1-.2.2s-.2.1-.2.1z" class="st1"/>
    <path d="M227.5 143c-.1 0-.2 0-.3-.1-.1 0-.1-.1-.2-.2s-.1-.2 0-.3c0-.1.1-.2.2-.2l32.2-11.5h.4c.1 0 .2.1.3.2.1.1.1.2 0 .3 0 .1-.1.2-.2.2l-32.2 11.5c-.1.1-.1.1-.2.1zm75.6 27c-.1 0-.2 0-.3-.1l-.2-.2-7.8-27v-.2s0-.1.1-.1l.1-.1s.1 0 .2-.1h.2c.1 0 .1 0 .2.1.1 0 .1.1.1.1l.1.1 7.8 27v.1s0 .1-.1.1l-.1.1c-.1 0-.1 0-.2.1l-.1.1zm56.4-28.8-35.2-10.4h-.4c-.1 0-.1.1-.2.1l-.1.1v.2l.1.1s.1.1.2.1l35.5 10.5.1-.7z" class="st1"/>
    <use xlink:href="#b" class="st1"/>
  </g>
</svg>
