<svg width="992" height="564" viewBox="0 0 992 564" fill="none" xmlns="http://www.w3.org/2000/svg">
<rect x="14.2734" y="14.2734" width="963.454" height="535.252" fill="#041314"/>
<path d="M806.447 0H827.857L811.8 14.2734H790.39L806.447 0Z" fill="url(#paint0_linear_983_262)"/>
<path d="M776.116 0H797.526L781.469 14.2734H760.059L776.116 0Z" fill="url(#paint1_linear_983_262)"/>
<path d="M747.569 0H768.979L752.922 14.2734H731.512L747.569 0Z" fill="url(#paint2_linear_983_262)"/>
<path d="M806.447 563.799H827.857L811.8 549.525H790.39L806.447 563.799Z" fill="url(#paint3_linear_983_262)"/>
<path d="M776.116 563.799H797.526L781.469 549.525H760.059L776.116 563.799Z" fill="url(#paint4_linear_983_262)"/>
<path d="M747.569 563.799H768.979L752.922 549.525H731.512L747.569 563.799Z" fill="url(#paint5_linear_983_262)"/>
<path d="M185.554 0H164.144L180.201 14.2734H201.611L185.554 0Z" fill="url(#paint6_linear_983_262)"/>
<path d="M214.1 0H192.69L208.748 14.2734H230.158L214.1 0Z" fill="url(#paint7_linear_983_262)"/>
<path d="M242.648 0H221.238L237.295 14.2734H258.706L242.648 0Z" fill="url(#paint8_linear_983_262)"/>
<path d="M185.554 563.799H164.144L180.201 549.525H201.611L185.554 563.799Z" fill="url(#paint9_linear_983_262)"/>
<path d="M214.1 563.799H192.69L208.748 549.525H230.158L214.1 563.799Z" fill="url(#paint10_linear_983_262)"/>
<path d="M242.648 563.799H221.238L237.295 549.525H258.706L242.648 563.799Z" fill="url(#paint11_linear_983_262)"/>
<path fill-rule="evenodd" clip-rule="evenodd" d="M963.454 28.5469V48.1726H967.023V24.9784H963.454V24.9786H943.828V28.5469H963.454Z" fill="url(#paint12_linear_983_262)"/>
<path fill-rule="evenodd" clip-rule="evenodd" d="M28.5482 28.5469V48.1726H24.9798V28.5469H24.9796V24.9786H24.9798V24.9784H28.5482V24.9786H48.1738V28.5469H28.5482Z" fill="url(#paint13_linear_983_262)"/>
<path fill-rule="evenodd" clip-rule="evenodd" d="M963.454 535.252V515.626H967.023V538.82H963.454L943.828 538.82V535.252H963.454Z" fill="url(#paint14_linear_983_262)"/>
<path fill-rule="evenodd" clip-rule="evenodd" d="M28.5482 535.252V515.626H24.9798V535.252H24.9796V538.82L24.9798 538.82H28.5482L48.1738 538.82V535.252H28.5482Z" fill="url(#paint15_linear_983_262)"/>
<rect x="3.56836" y="146.302" width="10.705" height="265.842" fill="url(#paint16_linear_983_262)"/>
<rect x="977.728" y="157.007" width="10.705" height="265.842" fill="url(#paint17_linear_983_262)"/>
<path d="M315.799 0H676.202L690.475 14.2734H301.525L315.799 0Z" fill="url(#paint18_linear_983_262)"/>
<mask id="path-21-inside-1_983_262" fill="white">
<path fill-rule="evenodd" clip-rule="evenodd" d="M0.00012207 0H155.223L169.497 14.2734H14.2734V169.496L0 155.223V1.64509e-05L0.00012207 0Z"/>
</mask>
<path fill-rule="evenodd" clip-rule="evenodd" d="M0.00012207 0H155.223L169.497 14.2734H14.2734V169.496L0 155.223V1.64509e-05L0.00012207 0Z" fill="#0A0A0A"/>
<path d="M155.223 0V-1.06897H155.666L155.979 -0.755873L155.223 0ZM0.00012207 0L-0.142647 -1.05939L-0.0715838 -1.06897H0.00012207V0ZM169.497 14.2734L170.252 13.5175L172.077 15.3424H169.497V14.2734ZM14.2734 14.2734H13.2044V13.2044H14.2734V14.2734ZM14.2734 169.496H15.3424V172.077L13.5175 170.252L14.2734 169.496ZM0 155.223L-0.755873 155.979L-1.06897 155.666V155.223H0ZM0 1.64509e-05H-1.06897V-0.934553L-0.142769 -1.05937L0 1.64509e-05ZM155.223 1.06897H0.00012207V-1.06897H155.223V1.06897ZM168.741 15.0293L154.467 0.755873L155.979 -0.755873L170.252 13.5175L168.741 15.0293ZM14.2734 13.2044H169.497V15.3424H14.2734V13.2044ZM15.3424 14.2734V169.496H13.2044V14.2734H15.3424ZM13.5175 170.252L-0.755873 155.979L0.755873 154.467L15.0293 168.741L13.5175 170.252ZM-1.06897 155.223V1.64509e-05H1.06897V155.223H-1.06897ZM-0.142769 -1.05937L-0.142647 -1.05939L0.142891 1.05939L0.142769 1.05941L-0.142769 -1.05937Z" fill="url(#paint19_linear_983_262)" mask="url(#path-21-inside-1_983_262)"/>
<mask id="path-23-inside-2_983_262" fill="white">
<path fill-rule="evenodd" clip-rule="evenodd" d="M992 563.799H836.777L822.503 549.525H977.727V394.302L992 408.576V563.799H992V563.799Z"/>
</mask>
<path fill-rule="evenodd" clip-rule="evenodd" d="M992 563.799H836.777L822.503 549.525H977.727V394.302L992 408.576V563.799H992V563.799Z" fill="#0A0A0A"/>
<path d="M836.777 563.799V564.868H836.334L836.021 564.555L836.777 563.799ZM992 563.799H993.069V564.868H992V563.799ZM822.503 549.525L821.748 550.281L819.923 548.456H822.503V549.525ZM977.727 549.525H978.796V550.594H977.727V549.525ZM977.727 394.302H976.658V391.722L978.483 393.546L977.727 394.302ZM992 408.576L992.756 407.82L993.069 408.133V408.576H992ZM992 563.799H993.069V564.868H992V563.799ZM992 563.799H990.931V562.73H992V563.799ZM836.777 562.73H992V564.868H836.777V562.73ZM823.259 548.77L837.533 563.043L836.021 564.555L821.748 550.281L823.259 548.77ZM977.727 550.594H822.503V548.456H977.727V550.594ZM976.658 549.525V394.302H978.796V549.525H976.658ZM978.483 393.546L992.756 407.82L991.245 409.332L976.971 395.058L978.483 393.546ZM993.069 408.576V563.799H990.932V408.576H993.069ZM992 564.868H992V562.73H992V564.868ZM990.931 563.799V563.799H993.069V563.799H990.931Z" fill="url(#paint20_linear_983_262)" mask="url(#path-23-inside-2_983_262)"/>
<mask id="path-25-inside-3_983_262" fill="white">
<path fill-rule="evenodd" clip-rule="evenodd" d="M0.00012207 563.799H155.223L169.497 549.525H14.2734V394.302L0 408.576V563.799H0.00012207V563.799Z"/>
</mask>
<path fill-rule="evenodd" clip-rule="evenodd" d="M0.00012207 563.799H155.223L169.497 549.525H14.2734V394.302L0 408.576V563.799H0.00012207V563.799Z" fill="#0A0A0A"/>
<path d="M155.223 563.799V564.868H155.666L155.979 564.555L155.223 563.799ZM0.00012207 563.799H-1.06884V564.868H0.00012207V563.799ZM169.497 549.525L170.252 550.281L172.077 548.456H169.497V549.525ZM14.2734 549.525H13.2044V550.594H14.2734V549.525ZM14.2734 394.302H15.3424V391.721L13.5175 393.546L14.2734 394.302ZM0 408.576L-0.755873 407.82L-1.06897 408.133V408.576H0ZM0 563.799H-1.06897V564.868H0V563.799ZM0.00012207 563.799H1.06909V562.73H0.00012207V563.799ZM155.223 562.73H0.00012207V564.868H155.223V562.73ZM168.741 548.769L154.467 563.043L155.979 564.555L170.252 550.281L168.741 548.769ZM14.2734 550.594H169.497V548.456H14.2734V550.594ZM15.3424 549.525V394.302H13.2044V549.525H15.3424ZM13.5175 393.546L-0.755873 407.82L0.755873 409.331L15.0293 395.058L13.5175 393.546ZM-1.06897 408.576V563.799H1.06897V408.576H-1.06897ZM0 564.868H0.00012207V562.73H0V564.868ZM1.06909 563.799V563.799H-1.06884V563.799H1.06909Z" fill="url(#paint21_linear_983_262)" mask="url(#path-25-inside-3_983_262)"/>
<path d="M315.799 563.799H676.202L690.475 549.525H301.525L315.799 563.799Z" fill="url(#paint22_linear_983_262)"/>
<mask id="path-28-inside-4_983_262" fill="white">
<path fill-rule="evenodd" clip-rule="evenodd" d="M992 0H836.777L822.503 14.2734H977.727V169.496L992 155.223V1.64509e-05L992 0Z"/>
</mask>
<path fill-rule="evenodd" clip-rule="evenodd" d="M992 0H836.777L822.503 14.2734H977.727V169.496L992 155.223V1.64509e-05L992 0Z" fill="#0A0A0A"/>
<path d="M836.777 0V-1.06897H836.334L836.021 -0.755873L836.777 0ZM992 0L992.029 -1.06858L992.014 -1.06897H992V0ZM822.503 14.2734L821.748 13.5175L819.923 15.3424H822.503V14.2734ZM977.727 14.2734H978.796V13.2044H977.727V14.2734ZM977.727 169.496H976.658V172.077L978.483 170.252L977.727 169.496ZM992 155.223L992.756 155.979L993.069 155.666V155.223H992ZM992 1.64509e-05H993.069V-1.04053L992.029 -1.06856L992 1.64509e-05ZM836.777 1.06897H992V-1.06897H836.777V1.06897ZM823.259 15.0293L837.533 0.755873L836.021 -0.755873L821.748 13.5175L823.259 15.0293ZM977.727 13.2044H822.503V15.3424H977.727V13.2044ZM976.658 14.2734V169.496H978.796V14.2734H976.658ZM978.483 170.252L992.756 155.979L991.245 154.467L976.971 168.741L978.483 170.252ZM993.069 155.223V1.64509e-05H990.932V155.223H993.069ZM992.029 -1.06856L992.029 -1.06858L991.971 1.06858L991.972 1.06859L992.029 -1.06856Z" fill="url(#paint23_linear_983_262)" mask="url(#path-28-inside-4_983_262)"/>
<defs>
<linearGradient id="paint0_linear_983_262" x1="809.123" y1="0" x2="809.123" y2="14.2734" gradientUnits="userSpaceOnUse">
<stop stop-color="#33F75F"/>
<stop offset="1" stop-color="#B4FF43"/>
</linearGradient>
<linearGradient id="paint1_linear_983_262" x1="797.526" y1="-2.18173e-06" x2="745.785" y2="19.6259" gradientUnits="userSpaceOnUse">
<stop stop-color="#33F75F"/>
<stop offset="1" stop-color="#0A0A0A"/>
</linearGradient>
<linearGradient id="paint2_linear_983_262" x1="849.267" y1="-30.3309" x2="734.188" y2="13.3813" gradientUnits="userSpaceOnUse">
<stop stop-color="#33F75F"/>
<stop offset="1" stop-color="#0A0A0A"/>
</linearGradient>
<linearGradient id="paint3_linear_983_262" x1="809.123" y1="563.799" x2="809.123" y2="549.525" gradientUnits="userSpaceOnUse">
<stop stop-color="#33F75F"/>
<stop offset="1" stop-color="#B4FF43"/>
</linearGradient>
<linearGradient id="paint4_linear_983_262" x1="797.526" y1="563.799" x2="745.785" y2="544.173" gradientUnits="userSpaceOnUse">
<stop stop-color="#33F75F"/>
<stop offset="1" stop-color="#0A0A0A"/>
</linearGradient>
<linearGradient id="paint5_linear_983_262" x1="849.267" y1="594.13" x2="734.188" y2="550.417" gradientUnits="userSpaceOnUse">
<stop stop-color="#33F75F"/>
<stop offset="1" stop-color="#0A0A0A"/>
</linearGradient>
<linearGradient id="paint6_linear_983_262" x1="182.878" y1="0" x2="182.878" y2="14.2734" gradientUnits="userSpaceOnUse">
<stop stop-color="#33F75F"/>
<stop offset="1" stop-color="#B4FF43"/>
</linearGradient>
<linearGradient id="paint7_linear_983_262" x1="192.69" y1="-2.18173e-06" x2="244.431" y2="19.6259" gradientUnits="userSpaceOnUse">
<stop stop-color="#33F75F"/>
<stop offset="1" stop-color="#0A0A0A"/>
</linearGradient>
<linearGradient id="paint8_linear_983_262" x1="140.95" y1="-30.3309" x2="256.029" y2="13.3813" gradientUnits="userSpaceOnUse">
<stop stop-color="#33F75F"/>
<stop offset="1" stop-color="#0A0A0A"/>
</linearGradient>
<linearGradient id="paint9_linear_983_262" x1="182.878" y1="563.799" x2="182.878" y2="549.525" gradientUnits="userSpaceOnUse">
<stop stop-color="#33F75F"/>
<stop offset="1" stop-color="#B4FF43"/>
</linearGradient>
<linearGradient id="paint10_linear_983_262" x1="192.69" y1="563.799" x2="244.431" y2="544.173" gradientUnits="userSpaceOnUse">
<stop stop-color="#33F75F"/>
<stop offset="1" stop-color="#0A0A0A"/>
</linearGradient>
<linearGradient id="paint11_linear_983_262" x1="140.95" y1="594.13" x2="256.029" y2="550.417" gradientUnits="userSpaceOnUse">
<stop stop-color="#33F75F"/>
<stop offset="1" stop-color="#0A0A0A"/>
</linearGradient>
<linearGradient id="paint12_linear_983_262" x1="955.425" y1="24.9784" x2="955.425" y2="48.1726" gradientUnits="userSpaceOnUse">
<stop stop-color="#33F75F"/>
<stop offset="1" stop-color="#B4FF43"/>
</linearGradient>
<linearGradient id="paint13_linear_983_262" x1="36.5767" y1="24.9784" x2="36.5767" y2="48.1726" gradientUnits="userSpaceOnUse">
<stop stop-color="#33F75F"/>
<stop offset="1" stop-color="#B4FF43"/>
</linearGradient>
<linearGradient id="paint14_linear_983_262" x1="955.425" y1="538.82" x2="955.425" y2="515.626" gradientUnits="userSpaceOnUse">
<stop stop-color="#33F75F"/>
<stop offset="1" stop-color="#B4FF43"/>
</linearGradient>
<linearGradient id="paint15_linear_983_262" x1="36.5767" y1="538.82" x2="36.5767" y2="515.626" gradientUnits="userSpaceOnUse">
<stop stop-color="#33F75F"/>
<stop offset="1" stop-color="#B4FF43"/>
</linearGradient>
<linearGradient id="paint16_linear_983_262" x1="8.92088" y1="146.302" x2="8.92088" y2="412.144" gradientUnits="userSpaceOnUse">
<stop stop-color="#33F75F"/>
<stop offset="1" stop-color="#B4FF43"/>
</linearGradient>
<linearGradient id="paint17_linear_983_262" x1="983.08" y1="157.007" x2="983.08" y2="422.849" gradientUnits="userSpaceOnUse">
<stop stop-color="#33F75F"/>
<stop offset="1" stop-color="#B4FF43"/>
</linearGradient>
<linearGradient id="paint18_linear_983_262" x1="496" y1="0" x2="496" y2="14.2734" gradientUnits="userSpaceOnUse">
<stop stop-color="#33F75F"/>
<stop offset="1" stop-color="#B4FF43"/>
</linearGradient>
<linearGradient id="paint19_linear_983_262" x1="54.5174" y1="169.966" x2="54.5174" y2="2.28666e-06" gradientUnits="userSpaceOnUse">
<stop stop-color="#33F75F"/>
<stop offset="1" stop-color="#B4FF43"/>
</linearGradient>
<linearGradient id="paint20_linear_983_262" x1="907.252" y1="563.799" x2="907.252" y2="394.302" gradientUnits="userSpaceOnUse">
<stop stop-color="#33F75F"/>
<stop offset="1" stop-color="#B4FF43"/>
</linearGradient>
<linearGradient id="paint21_linear_983_262" x1="84.7483" y1="563.799" x2="84.7483" y2="394.302" gradientUnits="userSpaceOnUse">
<stop stop-color="#33F75F"/>
<stop offset="1" stop-color="#B4FF43"/>
</linearGradient>
<linearGradient id="paint22_linear_983_262" x1="496" y1="563.799" x2="496" y2="549.525" gradientUnits="userSpaceOnUse">
<stop stop-color="#33F75F"/>
<stop offset="1" stop-color="#B4FF43"/>
</linearGradient>
<linearGradient id="paint23_linear_983_262" x1="937.483" y1="169.966" x2="937.483" y2="2.28666e-06" gradientUnits="userSpaceOnUse">
<stop stop-color="#33F75F"/>
<stop offset="1" stop-color="#B4FF43"/>
</linearGradient>
</defs>
</svg>
